# xmcd CD database file
#
# Track frame offsets:
#	150
#	30415
#	49883
#	69406
#	94959
#	128576
#	150758
#	171286
#	197770
#	235292
#
# Disc length: 3454 seconds
#
# Revision: 0
# Processed by: cddbd v1.5.1PL0 Copyright (c) Steve Scherf et al.
# Submitted via: CDex 1.51
#
DISCID=790d7c0a
DTITLE=Bernd Scholl - Circle Of Trees [A Celtic Voyage]
DYEAR=2004
DGENRE=New Age
TTITLE0=Distant Shore
TTITLE1=Highland
TTITLE2=Farewell At Midnight
TTITLE3=Green Isle
TTITLE4=Bodham Meets Reel
TTITLE5=Stone Of Wisdom
TTITLE6=Dance Of The Maidens
TTITLE7=Circle Of Trees
TTITLE8=Voyage To Avalon
TTITLE9=Celtic Prayer
EXTD=YEAR: 2004
EXTT0=
EXTT1=
EXTT2=
EXTT3=
EXTT4=
EXTT5=
EXTT6=
EXTT7=
EXTT8=
EXTT9=
PLAYORDER=
